<?xml version="1.0" standalone="no"?>
<!DOCTYPE svg PUBLIC "-//W3C//DTD SVG 20010904//EN"
 "http://www.w3.org/TR/2001/REC-SVG-20010904/DTD/svg10.dtd">
<svg version="1.0" xmlns="http://www.w3.org/2000/svg"
 width="500.000000pt" height="500.000000pt" viewBox="0 0 500.000000 500.000000"
 preserveAspectRatio="xMidYMid meet">
<metadata>
Created by potrace 1.11, written by Peter Selinger 2001-2013
</metadata>
<g transform="translate(0.000000,500.000000) scale(0.100000,-0.100000)"
fill="#000000" stroke="none">
<path d="M755 4500 c-1 -3 -2 -63 -1 -134 l1 -130 -29 -15 c-53 -29 -103 -80
-130 -134 l-26 -52 0 -1840 0 -1840 23 -39 c12 -22 38 -49 57 -60 35 -21 37
-21 1895 -22 1035 0 1879 3 1902 8 54 12 98 53 114 109 10 35 13 429 13 1858
l1 1815 -22 54 c-33 82 -57 103 -183 162 -12 6 -15 30 -17 116 0 60 -2 118 -2
129 -1 20 -7 20 -1797 20 -988 0 -1797 -2 -1799 -5z"/>
</g>
</svg>
